<svg width="180" height="180" viewBox="0 0 180 180" fill="none" xmlns="http://www.w3.org/2000/svg">
<rect width="180" height="180" fill="white"/>
<path d="M140.625 68.6786C140.617 97.5629 124.487 115.12 102.04 115.116C94.393 115.114 87.7424 112.815 82.0885 109.201L82.0781 151.875L48.8233 151.867L48.8504 50.9314L39.375 42.8879L82.1073 28.125L82.1031 44.3728C90.9183 35.5147 101.229 29.7708 111.037 29.7729C127.832 29.777 140.629 43.2385 140.625 68.6786ZM105.043 78.0255C105.047 56.0318 100.229 45.0349 89.088 45.0328C86.5932 45.0307 84.4307 45.6866 82.1031 46.6704L82.0885 106.413C84.4161 108.055 87.4081 108.875 90.2351 108.877C98.8852 108.88 105.038 97.7197 105.043 78.0255Z" fill="#FF0033"/>
</svg>
